<?xml version="1.0" encoding="UTF-8" standalone="no"?>
<!DOCTYPE svg PUBLIC "-//W3C//DTD SVG 1.1//EN"
 "http://www.w3.org/Graphics/SVG/1.1/DTD/svg11.dtd">
<!-- Generated by graphviz version 2.40.1 (20161225.0304)
 -->
<!-- Title: G Pages: 1 -->
<svg width="783pt" height="576pt"
 viewBox="0.00 0.00 783.49 576.00" xmlns="http://www.w3.org/2000/svg" xmlns:xlink="http://www.w3.org/1999/xlink">
<g id="graph0" class="graph" transform="scale(1 1) rotate(0) translate(4 572)">
<title>G</title>
<polygon fill="#ffffff" stroke="transparent" points="-4,4 -4,-572 779.4861,-572 779.4861,4 -4,4"/>
<!-- A0 -->
<g id="node1" class="node">
<title>A0</title>
<g transform="translate(39.838,-326)" style="fill:none;stroke:black;stroke-width:1px"><circle cx="0" cy="-20" r="7.5" />
                <line x1="0" y1="-12.5" x2="0" y2="5" />
                <line x1="-15" y1="-5" x2="15" y2="-5" />
                <line x1="0" y1="5" x2="-15" y2="17" />
                <line x1="0" y1="5" x2="15" y2="17" /></g>
<text text-anchor="middle" x="39.838" y="-301" font-family="Helvetica,sans-Serif" font-size="10.00" fill="#000000">User</text>
</g>
<!-- A1 -->
<g id="node2" class="node">
<title>A1</title>
<ellipse fill="none" stroke="#000000" cx="189.4045" cy="-546" rx="39.4434" ry="18"/>
<text text-anchor="middle" x="189.4045" y="-543" font-family="Helvetica,sans-Serif" font-size="10.00" fill="#000000">Register</text>
</g>
<!-- A0&#45;&gt;A1 -->
<g id="edge1" class="edge">
<title>A0&#45;&gt;A1</title>
<path fill="none" stroke="#000000" d="M50.6902,-365.0272C64.1594,-404.8576 90.396,-469.0544 130.676,-512 138.9775,-520.8509 150.1059,-528.0835 160.4425,-533.5673"/>
</g>
<!-- A3 -->
<g id="node4" class="node">
<title>A3</title>
<ellipse fill="none" stroke="#000000" cx="189.4045" cy="-485" rx="31.5864" ry="18"/>
<text text-anchor="middle" x="189.4045" y="-482" font-family="Helvetica,sans-Serif" font-size="10.00" fill="#000000">Login</text>
</g>
<!-- A0&#45;&gt;A3 -->
<g id="edge3" class="edge">
<title>A0&#45;&gt;A3</title>
<path fill="none" stroke="#000000" d="M55.3024,-365.1608C66.4784,-388.1207 83.3427,-417.3007 104.676,-438 121.4569,-454.2822 144.994,-466.7392 163.0033,-474.7248"/>
</g>
<!-- A5 -->
<g id="node6" class="node">
<title>A5</title>
<ellipse fill="none" stroke="#000000" cx="329.0616" cy="-445" rx="55.8573" ry="18"/>
<text text-anchor="middle" x="329.0616" y="-442" font-family="Helvetica,sans-Serif" font-size="10.00" fill="#000000">View User Info</text>
</g>
<!-- A0&#45;&gt;A5 -->
<g id="edge5" class="edge">
<title>A0&#45;&gt;A5</title>
<path fill="none" stroke="#000000" d="M79.8073,-352.4502C95.3905,-361.0882 113.5866,-370.5685 130.676,-378 183.1824,-400.8329 246.173,-420.9311 286.8728,-433.0169"/>
</g>
<!-- A7 -->
<g id="node8" class="node">
<title>A7</title>
<ellipse fill="none" stroke="#000000" cx="189.4045" cy="-222" rx="54.0149" ry="18"/>
<text text-anchor="middle" x="189.4045" y="-219" font-family="Helvetica,sans-Serif" font-size="10.00" fill="#000000">View Item List</text>
</g>
<!-- A0&#45;&gt;A7 -->
<g id="edge7" class="edge">
<title>A0&#45;&gt;A7</title>
<path fill="none" stroke="#000000" d="M76.8883,-292.7275C92.6829,-278.3709 111.7995,-262.3767 130.676,-250 138.4218,-244.9213 147.2309,-240.2234 155.6276,-236.1833"/>
</g>
<!-- A9 -->
<g id="node10" class="node">
<title>A9</title>
<ellipse fill="none" stroke="#000000" cx="189.4045" cy="-351" rx="55.8585" ry="18"/>
<text text-anchor="middle" x="189.4045" y="-348" font-family="Helvetica,sans-Serif" font-size="10.00" fill="#000000">Post New Item</text>
</g>
<!-- A0&#45;&gt;A9 -->
<g id="edge9" class="edge">
<title>A0&#45;&gt;A9</title>
<path fill="none" stroke="#000000" d="M79.5264,-334.8378C97.6138,-337.4983 119.2435,-340.6799 138.5096,-343.5138"/>
</g>
<!-- A12 -->
<g id="node13" class="node">
<title>A12</title>
<ellipse fill="none" stroke="#000000" cx="189.4045" cy="-277" rx="47.8173" ry="18"/>
<text text-anchor="middle" x="189.4045" y="-274" font-family="Helvetica,sans-Serif" font-size="10.00" fill="#000000">Modify Item</text>
</g>
<!-- A0&#45;&gt;A12 -->
<g id="edge14" class="edge">
<title>A0&#45;&gt;A12</title>
<path fill="none" stroke="#000000" d="M79.5264,-315.2015C102.7198,-307.1378 131.7378,-297.0491 154.128,-289.2646"/>
</g>
<!-- A13 -->
<g id="node14" class="node">
<title>A13</title>
<ellipse fill="none" stroke="#000000" cx="189.4045" cy="-166" rx="54.8597" ry="18"/>
<text text-anchor="middle" x="189.4045" y="-163" font-family="Helvetica,sans-Serif" font-size="10.00" fill="#000000">View Item Info</text>
</g>
<!-- A0&#45;&gt;A13 -->
<g id="edge19" class="edge">
<title>A0&#45;&gt;A13</title>
<path fill="none" stroke="#000000" d="M57.6344,-292.7604C73.5133,-263.3942 99.1062,-222.5144 130.676,-195 137.5339,-189.023 145.8409,-183.9496 154.0214,-179.7988"/>
</g>
<!-- A14 -->
<g id="node15" class="node">
<title>A14</title>
<ellipse fill="none" stroke="#000000" cx="189.4045" cy="-18" rx="35.4469" ry="18"/>
<text text-anchor="middle" x="189.4045" y="-15" font-family="Helvetica,sans-Serif" font-size="10.00" fill="#000000">Logout</text>
</g>
<!-- A0&#45;&gt;A14 -->
<g id="edge21" class="edge">
<title>A0&#45;&gt;A14</title>
<path fill="none" stroke="#000000" d="M42.2275,-292.6046C47.9189,-233.7143 67.0177,-116.8936 130.676,-45 137.9665,-36.7664 148.2815,-30.8799 158.2372,-26.7502"/>
</g>
<!-- A2 -->
<g id="node3" class="node">
<title>A2</title>
<ellipse fill="none" stroke="#000000" cx="479.9469" cy="-550" rx="61.7203" ry="18"/>
<text text-anchor="middle" x="479.9469" y="-547" font-family="Helvetica,sans-Serif" font-size="10.00" fill="#000000">Submit User Info</text>
</g>
<!-- A1&#45;&gt;A2 -->
<g id="edge2" class="edge">
<title>A1&#45;&gt;A2</title>
<path fill="none" stroke="#000000" stroke-dasharray="5,2" d="M228.8907,-546.5436C274.7549,-547.175 351.3444,-548.2295 407.893,-549.008"/>
<polygon fill="#000000" stroke="#000000" points="418.2067,-549.15 408.1457,-553.5118 413.2072,-549.0811 408.2077,-549.0122 408.2077,-549.0122 408.2077,-549.0122 413.2072,-549.0811 408.2697,-544.5127 418.2067,-549.15 418.2067,-549.15"/>
<text text-anchor="middle" x="329.0616" y="-551" font-family="Helvetica,sans-Serif" font-size="10.00" fill="#000000">&lt;&lt;include&gt;&gt;</text>
</g>
<!-- A4 -->
<g id="node5" class="node">
<title>A4</title>
<ellipse fill="none" stroke="#000000" cx="479.9469" cy="-496" rx="50.0196" ry="18"/>
<text text-anchor="middle" x="479.9469" y="-493" font-family="Helvetica,sans-Serif" font-size="10.00" fill="#000000">Authenticate</text>
</g>
<!-- A3&#45;&gt;A4 -->
<g id="edge4" class="edge">
<title>A3&#45;&gt;A4</title>
<path fill="none" stroke="#000000" stroke-dasharray="5,2" d="M221.0507,-486.1981C268.5995,-487.9983 359.3258,-491.4333 419.7433,-493.7207"/>
<polygon fill="#000000" stroke="#000000" points="429.9105,-494.1056 419.7473,-498.224 424.914,-493.9164 419.9176,-493.7272 419.9176,-493.7272 419.9176,-493.7272 424.914,-493.9164 420.0879,-489.2304 429.9105,-494.1056 429.9105,-494.1056"/>
<text text-anchor="middle" x="329.0616" y="-495" font-family="Helvetica,sans-Serif" font-size="10.00" fill="#000000">&lt;&lt;include&gt;&gt;</text>
</g>
<!-- A6 -->
<g id="node7" class="node">
<title>A6</title>
<ellipse fill="none" stroke="#000000" cx="715.2098" cy="-346" rx="52.6838" ry="18"/>
<text text-anchor="middle" x="715.2098" y="-343" font-family="Helvetica,sans-Serif" font-size="10.00" fill="#000000">Get User Info</text>
</g>
<!-- A5&#45;&gt;A6 -->
<g id="edge6" class="edge">
<title>A5&#45;&gt;A6</title>
<path fill="none" stroke="#000000" stroke-dasharray="5,2" d="M383.9946,-448.409C446.071,-450.2376 548.9985,-447.0717 629.9335,-414 653.7342,-404.2746 676.2772,-385.7361 692.2011,-370.4693"/>
<polygon fill="#000000" stroke="#000000" points="699.463,-363.2904 695.515,-373.521 695.9072,-366.8056 692.3513,-370.3207 692.3513,-370.3207 692.3513,-370.3207 695.9072,-366.8056 689.1877,-367.1205 699.463,-363.2904 699.463,-363.2904"/>
<text text-anchor="middle" x="479.9469" y="-451" font-family="Helvetica,sans-Serif" font-size="10.00" fill="#000000">&lt;&lt;include&gt;&gt;</text>
</g>
<!-- A8 -->
<g id="node9" class="node">
<title>A8</title>
<ellipse fill="none" stroke="#000000" cx="479.9469" cy="-190" rx="51.6861" ry="18"/>
<text text-anchor="middle" x="479.9469" y="-187" font-family="Helvetica,sans-Serif" font-size="10.00" fill="#000000">Get Item Info</text>
</g>
<!-- A7&#45;&gt;A8 -->
<g id="edge8" class="edge">
<title>A7&#45;&gt;A8</title>
<path fill="none" stroke="#000000" stroke-dasharray="5,2" d="M219.7766,-207.0709C241.3499,-196.6018 267.4576,-184.257 273.133,-183 323.1972,-171.9122 381.7247,-175.3643 423.7154,-180.5897"/>
<polygon fill="#000000" stroke="#000000" points="433.7508,-181.9112 423.2489,-185.067 428.7936,-181.2584 423.8364,-180.6055 423.8364,-180.6055 423.8364,-180.6055 428.7936,-181.2584 424.424,-176.144 433.7508,-181.9112 433.7508,-181.9112"/>
<text text-anchor="middle" x="329.0616" y="-186" font-family="Helvetica,sans-Serif" font-size="10.00" fill="#000000">&lt;&lt;include&gt;&gt;</text>
</g>
<!-- A9&#45;&gt;A6 -->
<g id="edge12" class="edge">
<title>A9&#45;&gt;A6</title>
<path fill="none" stroke="#000000" stroke-dasharray="5,2" d="M224.6621,-365.0691C239.3901,-370.2319 256.8381,-375.4376 273.133,-378 411.7808,-399.8022 577.2683,-374.2938 660.9708,-357.8226"/>
<polygon fill="#000000" stroke="#000000" points="671.0096,-355.8129 662.0875,-362.1884 666.1069,-356.7944 661.2041,-357.776 661.2041,-357.776 661.2041,-357.776 666.1069,-356.7944 660.3207,-353.3635 671.0096,-355.8129 671.0096,-355.8129"/>
<text text-anchor="middle" x="479.9469" y="-389" font-family="Helvetica,sans-Serif" font-size="10.00" fill="#000000">&lt;&lt;include&gt;&gt;</text>
</g>
<!-- A10 -->
<g id="node11" class="node">
<title>A10</title>
<ellipse fill="none" stroke="#000000" cx="479.9469" cy="-346" rx="69.9133" ry="18"/>
<text text-anchor="middle" x="479.9469" y="-343" font-family="Helvetica,sans-Serif" font-size="10.00" fill="#000000">Check Current User</text>
</g>
<!-- A9&#45;&gt;A10 -->
<g id="edge10" class="edge">
<title>A9&#45;&gt;A10</title>
<path fill="none" stroke="#000000" stroke-dasharray="5,2" d="M241.5918,-357.4819C252.0229,-358.5313 262.9137,-359.4523 273.133,-360 322.7761,-362.6604 335.409,-363.6354 384.9902,-360 393.6238,-359.367 402.6636,-358.4144 411.5893,-357.2979"/>
<polygon fill="#000000" stroke="#000000" points="421.5904,-355.9761 412.2663,-361.7477 416.6335,-356.6313 411.6766,-357.2865 411.6766,-357.2865 411.6766,-357.2865 416.6335,-356.6313 411.087,-352.8253 421.5904,-355.9761 421.5904,-355.9761"/>
<text text-anchor="middle" x="329.0616" y="-365" font-family="Helvetica,sans-Serif" font-size="10.00" fill="#000000">&lt;&lt;include&gt;&gt;</text>
</g>
<!-- A11 -->
<g id="node12" class="node">
<title>A11</title>
<ellipse fill="none" stroke="#000000" cx="479.9469" cy="-292" rx="60.7227" ry="18"/>
<text text-anchor="middle" x="479.9469" y="-289" font-family="Helvetica,sans-Serif" font-size="10.00" fill="#000000">Submit Item Info</text>
</g>
<!-- A9&#45;&gt;A11 -->
<g id="edge13" class="edge">
<title>A9&#45;&gt;A11</title>
<path fill="none" stroke="#000000" stroke-dasharray="5,2" d="M243.9029,-346.734C283.4395,-342.9201 337.9999,-336.1669 384.9902,-325 401.1476,-321.1603 418.413,-315.6157 433.7304,-310.1641"/>
<polygon fill="#000000" stroke="#000000" points="443.4836,-306.6139 435.626,-314.263 438.7852,-308.3242 434.0868,-310.0344 434.0868,-310.0344 434.0868,-310.0344 438.7852,-308.3242 432.5475,-305.8059 443.4836,-306.6139 443.4836,-306.6139"/>
<text text-anchor="middle" x="329.0616" y="-346" font-family="Helvetica,sans-Serif" font-size="10.00" fill="#000000">&lt;&lt;include&gt;&gt;</text>
</g>
<!-- A10&#45;&gt;A6 -->
<g id="edge11" class="edge">
<title>A10&#45;&gt;A6</title>
<path fill="none" stroke="#000000" stroke-dasharray="5,2" d="M550.2148,-346C582.573,-346 620.6713,-346 652.1013,-346"/>
<polygon fill="#000000" stroke="#000000" points="662.4866,-346 652.4867,-350.5001 657.4866,-346 652.4866,-346.0001 652.4866,-346.0001 652.4866,-346.0001 657.4866,-346 652.4866,-341.5001 662.4866,-346 662.4866,-346"/>
<text text-anchor="middle" x="602.4185" y="-349" font-family="Helvetica,sans-Serif" font-size="10.00" fill="#000000">&lt;&lt;include&gt;&gt;</text>
</g>
<!-- A12&#45;&gt;A6 -->
<g id="edge16" class="edge">
<title>A12&#45;&gt;A6</title>
<path fill="none" stroke="#000000" stroke-dasharray="5,2" d="M228.3197,-266.428C295.2573,-249.9949 435.9818,-223.1538 549.9035,-253 601.5853,-266.54 654.1564,-300.2727 685.7306,-323.1642"/>
<polygon fill="#000000" stroke="#000000" points="694.0612,-329.3075 683.3421,-326.9941 690.0371,-326.3399 686.0129,-323.3724 686.0129,-323.3724 686.0129,-323.3724 690.0371,-326.3399 688.6837,-319.7506 694.0612,-329.3075 694.0612,-329.3075"/>
<text text-anchor="middle" x="479.9469" y="-256" font-family="Helvetica,sans-Serif" font-size="10.00" fill="#000000">&lt;&lt;include&gt;&gt;</text>
</g>
<!-- A12&#45;&gt;A8 -->
<g id="edge17" class="edge">
<title>A12&#45;&gt;A8</title>
<path fill="none" stroke="#000000" stroke-dasharray="5,2" d="M223.2299,-264.0299C231.8047,-259.9172 240.6872,-254.881 248.133,-249 262.0228,-238.0293 257.7146,-226.6924 273.133,-218 297.3227,-204.3627 366.6893,-197.018 418.4608,-193.3195"/>
<polygon fill="#000000" stroke="#000000" points="428.5619,-192.6276 418.8929,-197.8005 423.5736,-192.9693 418.5853,-193.3111 418.5853,-193.3111 418.5853,-193.3111 423.5736,-192.9693 418.2778,-188.8216 428.5619,-192.6276 428.5619,-192.6276"/>
<text text-anchor="middle" x="329.0616" y="-221" font-family="Helvetica,sans-Serif" font-size="10.00" fill="#000000">&lt;&lt;include&gt;&gt;</text>
</g>
<!-- A12&#45;&gt;A10 -->
<g id="edge15" class="edge">
<title>A12&#45;&gt;A10</title>
<path fill="none" stroke="#000000" stroke-dasharray="5,2" d="M233.6799,-284.0019C286.8356,-292.4815 370.6573,-306.1139 384.9902,-310 387.5958,-310.7065 409.4507,-318.98 431.5361,-327.4169"/>
<polygon fill="#000000" stroke="#000000" points="440.9599,-331.0212 430.0122,-331.6519 436.2898,-329.235 431.6197,-327.4488 431.6197,-327.4488 431.6197,-327.4488 436.2898,-329.235 433.2272,-323.2457 440.9599,-331.0212 440.9599,-331.0212"/>
<text text-anchor="middle" x="329.0616" y="-313" font-family="Helvetica,sans-Serif" font-size="10.00" fill="#000000">&lt;&lt;include&gt;&gt;</text>
</g>
<!-- A12&#45;&gt;A11 -->
<g id="edge18" class="edge">
<title>A12&#45;&gt;A11</title>
<path fill="none" stroke="#000000" stroke-dasharray="5,2" d="M237.3065,-275.3623C276.9497,-274.4588 334.7097,-274.1841 384.9902,-278 395.4414,-278.7932 406.4892,-280.0417 417.2095,-281.474"/>
<polygon fill="#000000" stroke="#000000" points="427.3572,-282.8946 416.8299,-285.9646 422.4055,-282.2014 417.4538,-281.5081 417.4538,-281.5081 417.4538,-281.5081 422.4055,-282.2014 418.0778,-277.0516 427.3572,-282.8946 427.3572,-282.8946"/>
<text text-anchor="middle" x="329.0616" y="-281" font-family="Helvetica,sans-Serif" font-size="10.00" fill="#000000">&lt;&lt;include&gt;&gt;</text>
</g>
<!-- A13&#45;&gt;A8 -->
<g id="edge20" class="edge">
<title>A13&#45;&gt;A8</title>
<path fill="none" stroke="#000000" stroke-dasharray="5,2" d="M230.2396,-153.8778C270.3402,-143.9106 332.9039,-133.5729 384.9902,-148 397.4777,-151.4588 398.3473,-157.3128 409.9902,-163 417.5571,-166.6961 425.7666,-170.2483 433.8108,-173.4933"/>
<polygon fill="#000000" stroke="#000000" points="443.1297,-177.1517 432.1769,-177.6861 438.4755,-175.3245 433.8213,-173.4973 433.8213,-173.4973 433.8213,-173.4973 438.4755,-175.3245 435.4658,-169.3086 443.1297,-177.1517 443.1297,-177.1517"/>
<text text-anchor="middle" x="329.0616" y="-151" font-family="Helvetica,sans-Serif" font-size="10.00" fill="#000000">&lt;&lt;include&gt;&gt;</text>
</g>
<!-- A15 -->
<g id="node16" class="node">
<title>A15</title>
<g transform="translate(189.4045,-87)" style="fill:none;stroke:black;stroke-width:1px"><circle cx="0" cy="-20" r="7.5" />
                <line x1="0" y1="-12.5" x2="0" y2="5" />
                <line x1="-15" y1="-5" x2="15" y2="-5" />
                <line x1="0" y1="5" x2="-15" y2="17" />
                <line x1="0" y1="5" x2="15" y2="17" /></g>
<text text-anchor="middle" x="189.4045" y="-62" font-family="Helvetica,sans-Serif" font-size="10.00" fill="#000000">Administrator</text>
</g>
<!-- A16 -->
<g id="node17" class="node">
<title>A16</title>
<ellipse fill="none" stroke="#000000" cx="479.9469" cy="-136" rx="67.9192" ry="18"/>
<text text-anchor="middle" x="479.9469" y="-133" font-family="Helvetica,sans-Serif" font-size="10.00" fill="#000000">Set New Item Type</text>
</g>
<!-- A15&#45;&gt;A16 -->
<g id="edge22" class="edge">
<title>A15&#45;&gt;A16</title>
<path fill="none" stroke="#000000" d="M248.2001,-99.3088C298.6079,-107.2896 370.8562,-118.7283 421.2387,-126.7051"/>
</g>
<!-- A18 -->
<g id="node19" class="node">
<title>A18</title>
<ellipse fill="none" stroke="#000000" cx="479.9469" cy="-28" rx="62.8913" ry="18"/>
<text text-anchor="middle" x="479.9469" y="-25" font-family="Helvetica,sans-Serif" font-size="10.00" fill="#000000">Modify Item Type</text>
</g>
<!-- A15&#45;&gt;A18 -->
<g id="edge24" class="edge">
<title>A15&#45;&gt;A18</title>
<path fill="none" stroke="#000000" d="M248.2001,-77.4534C301.4267,-66.0951 379.0049,-49.5404 429.4783,-38.7697"/>
</g>
<!-- A20 -->
<g id="node21" class="node">
<title>A20</title>
<ellipse fill="none" stroke="#000000" cx="479.9469" cy="-82" rx="46.4762" ry="18"/>
<text text-anchor="middle" x="479.9469" y="-79" font-family="Helvetica,sans-Serif" font-size="10.00" fill="#000000">Grant User</text>
</g>
<!-- A15&#45;&gt;A20 -->
<g id="edge27" class="edge">
<title>A15&#45;&gt;A20</title>
<path fill="none" stroke="#000000" d="M248.2001,-88.3811C302.9191,-86.8744 383.3742,-84.6591 433.6587,-83.2745"/>
</g>
<!-- A17 -->
<g id="node18" class="node">
<title>A17</title>
<ellipse fill="none" stroke="#000000" cx="715.2098" cy="-109" rx="60.0534" ry="18"/>
<text text-anchor="middle" x="715.2098" y="-106" font-family="Helvetica,sans-Serif" font-size="10.00" fill="#000000">Apply Item Type</text>
</g>
<!-- A16&#45;&gt;A17 -->
<g id="edge23" class="edge">
<title>A16&#45;&gt;A17</title>
<path fill="none" stroke="#000000" stroke-dasharray="5,2" d="M542.3754,-128.8354C575.1908,-125.0693 615.4189,-120.4525 648.8051,-116.6209"/>
<polygon fill="#000000" stroke="#000000" points="658.9309,-115.4589 649.5092,-121.0698 653.9635,-116.029 648.9961,-116.5991 648.9961,-116.5991 648.9961,-116.5991 653.9635,-116.029 648.483,-112.1285 658.9309,-115.4589 658.9309,-115.4589"/>
<text text-anchor="middle" x="602.4185" y="-127" font-family="Helvetica,sans-Serif" font-size="10.00" fill="#000000">&lt;&lt;include&gt;&gt;</text>
</g>
<!-- A18&#45;&gt;A17 -->
<g id="edge26" class="edge">
<title>A18&#45;&gt;A17</title>
<path fill="none" stroke="#000000" stroke-dasharray="5,2" d="M531.8223,-38.2034C561.1064,-44.6883 598.1024,-54.1064 629.9335,-66 646.1145,-72.046 663.2483,-80.2924 677.8797,-87.9469"/>
<polygon fill="#000000" stroke="#000000" points="687.0981,-92.8625 676.1568,-92.128 682.6861,-90.5099 678.2742,-88.1572 678.2742,-88.1572 678.2742,-88.1572 682.6861,-90.5099 680.3916,-84.1865 687.0981,-92.8625 687.0981,-92.8625"/>
<text text-anchor="middle" x="602.4185" y="-69" font-family="Helvetica,sans-Serif" font-size="10.00" fill="#000000">&lt;&lt;include&gt;&gt;</text>
</g>
<!-- A19 -->
<g id="node20" class="node">
<title>A19</title>
<ellipse fill="none" stroke="#000000" cx="715.2098" cy="-28" rx="54.8621" ry="18"/>
<text text-anchor="middle" x="715.2098" y="-25" font-family="Helvetica,sans-Serif" font-size="10.00" fill="#000000">Get Item Type</text>
</g>
<!-- A18&#45;&gt;A19 -->
<g id="edge25" class="edge">
<title>A18&#45;&gt;A19</title>
<path fill="none" stroke="#000000" stroke-dasharray="5,2" d="M542.993,-28C576.0505,-28 616.4979,-28 649.8856,-28"/>
<polygon fill="#000000" stroke="#000000" points="660.0047,-28 650.0047,-32.5001 655.0047,-28 650.0047,-28.0001 650.0047,-28.0001 650.0047,-28.0001 655.0047,-28 650.0046,-23.5001 660.0047,-28 660.0047,-28"/>
<text text-anchor="middle" x="602.4185" y="-31" font-family="Helvetica,sans-Serif" font-size="10.00" fill="#000000">&lt;&lt;include&gt;&gt;</text>
</g>
<!-- A20&#45;&gt;A6 -->
<g id="edge28" class="edge">
<title>A20&#45;&gt;A6</title>
<path fill="none" stroke="#000000" stroke-dasharray="5,2" d="M524.473,-76.7518C557.1497,-75.39 600.7426,-79.0936 629.9335,-103 664.0437,-130.9351 696.2103,-260.055 709.1826,-317.8721"/>
<polygon fill="#000000" stroke="#000000" points="711.3776,-327.7975 704.8244,-319.0052 710.2979,-322.9155 709.2183,-318.0335 709.2183,-318.0335 709.2183,-318.0335 710.2979,-322.9155 713.6121,-317.0617 711.3776,-327.7975 711.3776,-327.7975"/>
<text text-anchor="middle" x="602.4185" y="-106" font-family="Helvetica,sans-Serif" font-size="10.00" fill="#000000">&lt;&lt;include&gt;&gt;</text>
</g>
</g>
</svg>
